HIERARCHY
ROOT Hips
{
  OFFSET 1.44925e-005 102.336 -0.101585
  CHANNELS 6 Xposition Yposition Zposition Zrotation Xrotation Yrotation
  JOINT LeftUpLeg
  {
    OFFSET 8.9458 -8.66707 0.101652
    CHANNELS 3 Zrotation Xrotation Yrotation
    JOINT LeftLeg
    {
      OFFSET 0 -44.4227 1.3727
      CHANNELS 3 Zrotation Xrotation Yrotation
      JOINT LeftFoot
      {
        OFFSET -0.253549 -42.0924 -1.46059
        CHANNELS 3 Zrotation Xrotation Yrotation
        JOINT LeftToes
        {
          OFFSET -0.04 -4.41509 8.4991
          CHANNELS 3 Zrotation Xrotation Yrotation
          End Site
          {
            OFFSET 0.08 -0.047448 9.77979
          }
        }
      }
    }
  }
  JOINT Spine
  {
    OFFSET 0 11.8905 0
    CHANNELS 3 Zrotation Xrotation Yrotation
    JOINT Spine1
    {
      OFFSET 0 25.6574 0.127663
      CHANNELS 3 Zrotation Xrotation Yrotation
      JOINT RightShoulder
      {
        OFFSET -8.99 -0.362252 -0.22
        CHANNELS 3 Zrotation Xrotation Yrotation
        JOINT RightArm
        {
          OFFSET -10.2827 -0.00338 0.322123
          CHANNELS 3 Zrotation Xrotation Yrotation
          JOINT RightForeArm
          {
            OFFSET -26.364 0.099144 -1.42434
            CHANNELS 3 Zrotation Xrotation Yrotation
            JOINT RightHand
            {
              OFFSET -22.0324 0.085362 1.02216
              CHANNELS 3 Zrotation Xrotation Yrotation
              End Site
              {
                OFFSET -13.3284 -0.6 1.50291
              }
            }
          }
        }
      }
      JOINT LeftShoulder1
      {
        OFFSET 8.99 -0.362252 -0.22
        CHANNELS 3 Zrotation Xrotation Yrotation
        JOINT LeftArm
        {
          OFFSET 10.2827 -0.00337999 0.322123
          CHANNELS 3 Zrotation Xrotation Yrotation
          JOINT LeftForeArm
          {
            OFFSET 26.2597 0.099144 -1.42434
            CHANNELS 3 Zrotation Xrotation Yrotation
            JOINT LeftHand
            {
              OFFSET 22.0902 0.085362 1.02216
              CHANNELS 3 Zrotation Xrotation Yrotation
              End Site
              {
                OFFSET 13.419 -0.6 1.50291
              }
            }
          }
        }
      }
      JOINT Head
      {
        OFFSET 0 8.73416 0.011341
        CHANNELS 3 Zrotation Xrotation Yrotation
        End Site
        {
          OFFSET -0.29 12.7742 2.51395
        }
      }
    }
  }
  JOINT RightUpLeg
  {
    OFFSET -8.9458 -8.66707 0.101652
    CHANNELS 3 Zrotation Xrotation Yrotation
    JOINT RightLeg
    {
      OFFSET 0 -44.4227 1.3727
      CHANNELS 3 Zrotation Xrotation Yrotation
      JOINT RightFoot
      {
        OFFSET 0.253549 -42.0924 -1.46059
        CHANNELS 3 Zrotation Xrotation Yrotation
        JOINT RightToes
        {
          OFFSET 0.04 -4.41509 8.4991
          CHANNELS 3 Zrotation Xrotation Yrotation
          End Site
          {
            OFFSET -0.08 -0.137448 9.77979
          }
        }
      }
    }
  }
}
MOTION
Frames:	19
Frame Time:	0.0333333
4.84695 98.7806 6.61179 -10.6743 1.04211 -87.3296 -0.471185 -18.9529 -4.10381 2.97434 72.315 16.1476 -8.86683 -15.0285 -0.507035 -1.31415e-009 8.7524e-006 -1.4826e-008 11.4158 13.5479 -0.0332679 -5.55044 0.0163719 3.26141 31.9527 1.62658 0.204059 42.8211 -8.40668 42.9695 7.83745 32.2161 11.0967 -11.9574 9.2266 1.5566 -44.3195 3.47364 -3.31088 -23.7021 -13.6997 16.0006 -13.2675 48.1005 -2.58133 5.82328 9.61819 -0.917488 -0.277525 -10.2386 -12.5157 5.27183 -1.41183 -5.13462 0.294853 28.1691 -18.6493 -0.321343 -21.0202 -0.300661 0.0462048 0.000530889 0.662642 
1.77936 99.0688 6.70509 -10.8051 0.398036 -88.1908 -1.07766 -21.0872 -4.12577 2.14311 66.2602 15.7961 -9.60386 -15.3937 -0.583233 -1.31415e-009 8.7524e-006 -1.4826e-008 11.3098 13.5291 0.612794 -6.8235 0.0667441 3.91484 31.0483 1.59632 0.212459 39.7434 -5.47341 45.8163 6.62764 27.0121 14.1788 -12.1406 9.1938 1.78186 -43.9581 3.44304 -3.30384 -22.5446 -14.0725 20.8417 -12.2479 46.8664 -3.69492 5.82328 9.61819 -0.917488 -0.568973 -10.202 -12.6832 4.46382 1.63338 -5.35369 0.252651 26.5853 -17.4982 -0.122401 -22.089 -0.285555 0.0462048 0.000530889 0.662642 
-1.23569 99.2939 6.77179 -10.7945 -0.0987387 -88.8687 -1.46402 -22.5408 -3.9968 1.60568 58.5206 15.5595 -10.3652 -14.8104 -0.586146 -1.31415e-009 8.7524e-006 -1.4826e-008 10.8912 13.3159 1.17248 -7.7077 0.290038 4.3566 30.6755 1.57453 0.190619 36.5353 -3.36328 48.0508 5.48118 22.5753 17.1368 -12.328 9.19154 1.68579 -43.5864 3.41476 -3.30267 -20.6762 -16.8813 24.5315 -12.9661 47.7091 -1.8778 5.82328 9.61819 -0.917488 -0.769282 -10.2852 -12.6763 3.79792 4.55438 -5.58067 0.232411 24.7646 -16.5106 0.0302021 -22.9675 -0.271006 0.0462048 0.000530889 0.662642 
-4.22233 99.3745 6.82416 -10.5714 -0.457565 -89.3301 -1.70602 -23.2693 -3.81571 1.28033 49.4496 15.6506 -11.0979 -14.734 -0.625832 -1.31415e-009 8.7524e-006 -1.4826e-008 10.246 12.8945 1.59966 -8.19368 0.576568 4.58681 30.6725 1.56605 0.167847 34.353 -2.34705 49.5105 4.52682 19.5302 19.8454 -12.3727 9.21308 1.43895 -43.495 3.40623 -3.29921 -18.7982 -19.4578 27.0855 -14.2583 48.5072 0.989222 5.82328 9.61819 -0.917488 -0.832193 -10.4142 -12.5325 3.26673 7.15406 -5.85225 0.254424 23.0632 -15.6163 0.629868 -23.8921 -0.189246 0.0462048 0.000530889 0.662642 
-7.21512 99.3696 6.90181 -10.0743 -0.807571 -89.8314 -1.86402 -23.2749 -3.44141 1.09349 39.2691 16.2137 -11.4751 -14.4299 -0.620158 -1.31415e-009 8.7524e-006 -1.4826e-008 9.39097 12.2496 1.96582 -8.57119 0.898213 4.73459 30.7638 1.56695 0.161254 34.0779 -2.40287 50.168 3.97503 18.3136 22.1703 -12.3421 9.22246 1.36231 -43.6983 3.41408 -3.2848 -17.9085 -20.2814 28.5752 -15.0184 48.583 2.77817 5.82328 9.61819 -0.917488 -0.767151 -10.5407 -12.2609 2.73882 9.42946 -6.04421 0.216813 21.3892 -14.7539 1.24305 -24.6393 -0.0965234 0.0462048 0.000530889 0.662642 
-10.2057 99.3493 7.04919 -9.47036 -1.14146 -90.7128 -1.88286 -22.6067 -2.56328 1.02325 28.7621 16.9976 -10.8641 -12.7626 -0.432946 -1.31415e-009 8.7524e-006 -1.4826e-008 8.4597 11.6482 2.27145 -9.08301 1.19605 4.89938 30.9195 1.57405 0.165155 35.3201 -3.02548 50.0895 3.6925 18.9006 24.1363 -12.4168 9.2046 1.49803 -43.9422 3.42625 -3.27303 -18.0257 -20.0637 29.2853 -15.1676 48.8988 2.96915 5.82328 9.61819 -0.917488 -0.634188 -10.718 -11.7779 2.14428 11.5619 -6.07664 0.00341137 19.647 -13.8092 1.49721 -25.0375 -0.0546164 0.0462048 0.000530889 0.662642 
-13.277 99.1228 7.30781 -9.12313 -1.30018 -91.6896 -1.71746 -21.5547 -1.5597 0.788407 20.1552 17.6698 -9.69165 -11.3966 -0.26627 -1.31415e-009 8.7524e-006 -1.4826e-008 7.77147 11.4165 2.38279 -9.53245 1.36383 4.97553 31.2519 1.59038 0.176425 36.386 -3.05417 49.2307 3.30172 19.903 25.8117 -12.6175 9.18735 1.55035 -44.0447 3.43883 -3.28282 -18.8452 -19.7872 29.1671 -14.8577 49.3444 2.21984 5.82328 9.61819 -0.917488 -0.497365 -11.0547 -11.0695 1.58397 13.6556 -6.14815 -0.350576 18.6158 -12.548 2.24003 -25.7766 0.07428 0.0462048 0.000530889 0.662642 
-16.5502 98.5722 7.69701 -9.12236 -1.22638 -92.4959 -1.57469 -20.63 -1.70107 0.318787 15.8373 19.219 -8.74684 -12.3028 -0.299277 -1.31415e-009 8.7524e-006 -1.4826e-008 7.45352 11.4144 2.3048 -9.76064 1.51338 4.90894 31.7077 1.61168 0.188629 36.9149 -2.41751 47.5224 2.86858 20.7521 26.9294 -12.898 9.18629 1.39601 -44.0635 3.45036 -3.30278 -19.946 -20.015 27.9095 -14.4746 49.3469 1.58035 5.82328 9.61819 -0.917488 -0.418186 -11.5635 -10.3298 1.08225 15.7034 -6.34137 -0.73871 18.7959 -10.9946 4.00772 -27.102 0.405389 0.0462048 0.000530889 0.662642 
-20.0613 97.8411 8.21911 -9.16975 -1.03087 -93.3518 -1.70882 -19.9524 -1.68606 0.352297 15.6826 21.4608 -7.54217 -13.6255 -0.332393 -1.31415e-009 8.7524e-006 -1.4826e-008 7.36767 11.1691 2.2517 -9.89355 1.81353 4.88464 32.1729 1.63097 0.194226 36.9654 -1.05267 44.9595 2.76262 20.9331 27.0373 -13.1564 9.1785 1.32403 -44.1557 3.4674 -3.32271 -21.0972 -20.6794 25.5379 -14.321 49.0281 1.43486 5.82328 9.61819 -0.917488 -0.406166 -12.066 -9.6599 0.534103 17.5107 -6.16686 -1.19179 19.898 -9.69496 5.92324 -28.2734 0.800896 0.0462048 0.000530889 0.662642 
-23.77 97.1098 8.82568 -9.11668 -0.985689 -94.5486 -2.05255 -19.3887 -0.956348 0.548335 17.7353 24.2658 -5.35159 -11.7064 -0.145707 -1.31415e-009 8.7524e-006 -1.4826e-008 6.87033 10.6493 2.34815 -9.79161 2.04127 4.91254 32.7724 1.65764 0.205622 36.3822 1.48379 41.6877 2.99574 20.3061 25.7777 -13.0528 9.16726 1.49121 -44.3722 3.50659 -3.36761 -22.375 -21.3272 22.4656 -14.3428 48.8613 1.47474 5.82328 9.61819 -0.917488 -0.318396 -12.3045 -8.80179 -0.317159 18.9361 -4.41669 -1.56354 21.7059 -9.80633 7.87812 -28.9038 1.21439 0.0462048 0.000530889 0.662642 
-27.5235 96.4715 9.41784 -9.25594 -1.53378 -95.6682 -2.82237 -19.158 0.797404 0.698882 21.0246 25.1378 -2.86416 -6.89655 0.0449286 -1.31415e-009 8.7524e-006 -1.4826e-008 5.02353 10.4276 2.40783 -9.02127 1.87484 4.61887 33.7049 1.70224 0.23011 35.6834 4.72873 37.9651 3.48254 19.7967 22.7708 -12.4504 9.18819 1.64257 -44.6442 3.56585 -3.44283 -23.765 -21.7769 18.6888 -14.7177 49.2254 1.88205 5.82328 9.61819 -0.917488 0.0115447 -12.2259 -7.58633 -1.84288 19.9036 -0.60164 -1.27609 24.7611 -11.8311 11.4814 -29.0523 1.93434 0.0462048 0.000530889 0.662642 
-31.1439 95.9497 9.96743 -9.8212 -2.65602 -96.056 -4.32996 -19.1145 2.68899 1.08193 25.2504 23.2783 -1.11352 -3.99786 0.0498604 -1.31415e-009 8.7524e-006 -1.4826e-008 2.02901 10.8193 2.24098 -7.65844 1.49569 3.84454 34.8262 1.74817 0.238671 38.7786 2.36731 33.6982 4.93553 25.3772 16.8333 -11.9696 9.22176 1.60001 -44.9543 3.61463 -3.49117 -25.1568 -21.9607 13.3936 -15.9167 50.1707 3.31306 5.82328 9.61819 -0.917488 0.458812 -12.1133 -6.38462 -3.90858 19.717 2.07492 -0.815632 30.6388 -12.7016 16.4486 -27.7995 2.71413 0.0462048 0.000530889 0.662642 
-34.5639 95.7096 10.5436 -10.5893 -3.76247 -95.9808 -6.26236 -18.2978 2.7211 1.23129 28.9162 22.3352 -0.205446 -5.66124 0.0232711 -1.31415e-009 8.7524e-006 -1.4826e-008 -0.601703 11.4228 1.9558 -6.38954 1.39769 3.01737 35.7534 1.774 0.215602 46.926 -11.1485 30.0769 9.68916 40.6004 6.36561 -12.0414 9.24324 1.33268 -45.3192 3.63372 -3.47356 -26.5077 -21.8431 6.15362 -17.8229 51.3244 5.56312 5.82328 9.61819 -0.917488 0.647324 -12.2795 -5.57223 -5.89521 17.3996 2.52803 -0.968482 40.0588 -11.7977 18.8445 -22.7507 2.31863 0.0462048 0.000530889 0.662642 
-37.7379 95.8738 11.1475 -11.2594 -4.51587 -96.3597 -7.88524 -16.2802 2.40666 1.25158 30.5318 22.9772 -0.099047 -9.24502 0.0370567 -1.31415e-009 8.7524e-006 -1.4826e-008 -2.31875 11.8223 1.79877 -5.50037 1.71862 2.50051 36.3528 1.78635 0.190728 51.3634 -21.1531 27.0513 15.1366 48.9209 -5.84116 -11.9067 9.3161 0.636346 -45.5769 3.64073 -3.44882 -27.911 -21.9013 -1.99843 -19.1144 51.9249 7.04155 5.82328 9.61819 -0.917488 0.391964 -12.6214 -4.8476 -7.35236 12.7402 3.19914 -1.23121 51.3151 -12.0403 16.5717 -13.6647 0.70876 0.0462048 0.000530889 0.662642 
-40.6064 96.2477 11.6595 -11.7712 -5.01127 -97.3567 -8.93492 -13.8645 2.91573 1.28372 30.6108 23.7642 -0.766046 -11.5889 0.0284194 -1.31415e-009 8.7524e-006 -1.4826e-008 -4.10655 12.1125 1.82289 -4.48178 2.15557 2.02141 36.7828 1.80145 0.187725 51.5736 -26.073 22.7746 18.4497 52.9847 -13.8512 -10.9462 9.4532 -0.370494 -45.5366 3.6599 -3.49141 -29.4237 -22.6894 -9.582 -18.4077 51.1468 6.19728 5.82328 9.61819 -0.917488 -0.0665512 -12.7379 -3.69299 -8.03013 6.91623 4.41337 -1.66839 61.5041 -13.1181 12.4949 -5.86379 -0.37053 0.0462048 0.000530889 0.662642 
-43.356 96.8 12.0388 -12.138 -5.07786 -97.9876 -9.37429 -11.3284 3.65663 1.27901 29.9042 23.6405 -1.58022 -12.6701 -0.00841703 -1.31415e-009 8.7524e-006 -1.4826e-008 -5.89377 12.3648 1.59341 -2.84962 2.37326 1.1489 37.1086 1.81679 0.194421 48.7896 -28.3047 16.6718 19.9735 57.1598 -15.9891 -9.90221 9.54017 -0.89844 -45.1954 3.67184 -3.56522 -30.8704 -23.831 -16.2144 -16.0454 48.801 3.20903 5.82328 9.61819 -0.917488 -0.356505 -12.4724 -2.23206 -7.77781 1.52707 5.13411 -2.29171 68.6944 -13.9103 10.2163 -3.77654 -0.501953 0.0462048 0.000530889 0.662642 
-46.0999 97.4914 12.3537 -12.275 -4.56582 -97.7 -9.23968 -8.5848 3.81581 1.18871 28.6337 23.1051 -1.97849 -13.8742 -0.0399817 -1.31415e-009 8.7524e-006 -1.4826e-008 -6.88781 12.5545 0.928477 -0.99048 2.33999 -0.0392664 37.2242 1.81973 0.190496 43.9307 -26.8358 8.7699 19.8336 57.1259 -14.7339 -9.50504 9.53178 -0.580615 -44.6308 3.63992 -3.58885 -31.9158 -24.2711 -22.2481 -13.2991 45.5781 -0.777494 5.82328 9.61819 -0.917488 -0.296809 -11.9973 -1.01327 -6.87769 -3.1554 4.80295 -2.85375 72.5311 -14.0619 10.5076 -5.51202 -0.353361 0.0462048 0.000530889 0.662642 
-48.7737 98.1345 12.6421 -12.1773 -3.80548 -97.0681 -8.75959 -5.88532 3.46672 0.865171 27.0677 22.9942 -2.04674 -15.3214 -0.061442 -1.31415e-009 8.7524e-006 -1.4826e-008 -7.24624 12.7197 0.155304 0.466212 2.06283 -1.17905 37.1495 1.8112 0.177561 39.2179 -23.7225 0.48737 15.4597 53.634 -6.6671 -9.2517 9.49826 0.0393546 -43.7637 3.5553 -3.55496 -32.1523 -23.2394 -27.5124 -10.5349 41.9452 -5.26327 5.82328 9.61819 -0.917488 0.0980165 -11.4038 -0.176448 -5.82883 -7.61236 4.15192 -3.00504 73.4798 -13.608 11.5816 -7.35333 -0.20231 0.0462048 0.000530889 0.662642 
-51.3929 98.6896 12.8886 -11.9666 -3.12578 -96.6437 -8.17585 -3.3363 3.25143 0.351904 25.333 22.9891 -2.00799 -16.3002 -0.0705249 -1.31415e-009 8.7524e-006 -1.4826e-008 -7.50638 12.868 -0.549815 1.55394 1.51455 -2.13682 37.0447 1.80513 0.17304 35.4868 -20.936 -6.91465 12.1511 48.9725 0.0948336 -8.6495 9.50051 0.43045 -42.5042 3.4295 -3.49571 -31.1509 -20.693 -31.488 -7.58032 37.5236 -10.1671 5.82328 9.61819 -0.917488 0.689122 -10.633 0.557373 -4.80687 -11.8598 3.84368 -2.68587 71.9591 -13.1709 11.6932 -8.36574 -0.104177 0.0462048 0.000530889 0.662642 
